<?xml version="1.0" encoding="utf-8"?>
<!-- Generator: Adobe Illustrator 22.0.1, SVG Export Plug-In . SVG Version: 6.00 Build 0)  -->
<svg version="1.1" id="Layer_1" xmlns="http://www.w3.org/2000/svg" xmlns:xlink="http://www.w3.org/1999/xlink" x="0px" y="0px"
	 width="38px" height="49px" viewBox="0 0 38 49" style="enable-background:new 0 0 38 49;" xml:space="preserve">
<style type="text/css">
	.st0{fill:url(#SVGID_1_);}
	.st1{fill:url(#SVGID_2_);}
	.st2{fill:url(#SVGID_3_);}
	.st3{fill:url(#SVGID_4_);}
	.st4{fill:url(#SVGID_5_);}
	.st5{fill:url(#SVGID_6_);}
</style>
<linearGradient id="SVGID_1_" gradientUnits="userSpaceOnUse" x1="0.125" y1="38.457" x2="38.125" y2="38.457">
	<stop  offset="0" style="stop-color:#E45D5D"/>
	<stop  offset="1" style="stop-color:#FD9E38"/>
</linearGradient>
<path class="st0" d="M28.5,27.9c-0.2,0.5-0.4,0.9-0.6,1.4c5,2.6,8.6,7.8,8.6,13.4v3.1c0,0.9-0.7,1.6-1.6,1.6h-5v-3.8
	c0-0.4-0.3-0.8-0.8-0.8c-0.4,0-0.8,0.3-0.8,0.8v3.8H9.7v-3.8c0-0.4-0.3-0.8-0.8-0.8c-0.4,0-0.8,0.3-0.8,0.8v3.8h-5
	c-0.9,0-1.6-0.7-1.6-1.6v-3.1c0-5.7,3.6-10.8,8.6-13.4c-0.2-0.4-0.5-0.9-0.6-1.4C4.1,30.7,0,36.3,0,42.7v3.1C0,47.6,1.4,49,3.1,49
	h31.8c1.7,0,3.1-1.4,3.1-3.2v-3.1C38,36.3,33.9,30.7,28.5,27.9z"/>
<linearGradient id="SVGID_2_" gradientUnits="userSpaceOnUse" x1="0.125" y1="24.4994" x2="38.1499" y2="24.4994">
	<stop  offset="0" style="stop-color:#E45D5D"/>
	<stop  offset="1" style="stop-color:#FD9E38"/>
</linearGradient>
<path class="st1" d="M10.5,24.5c0,4.7,3.8,8.4,8.5,8.4c4.7,0,8.5-3.8,8.5-8.4c0-4.7-3.8-8.4-8.5-8.4C14.3,16.1,10.5,19.8,10.5,24.5z
	 M19,17.6c3.8,0,7,3.1,7,6.9s-3.1,6.9-7,6.9c-3.8,0-7-3.1-7-6.9S15.2,17.6,19,17.6z"/>
<linearGradient id="SVGID_3_" gradientUnits="userSpaceOnUse" x1="0.125" y1="7.2698" x2="38.1499" y2="7.2698">
	<stop  offset="0" style="stop-color:#E45D5D"/>
	<stop  offset="1" style="stop-color:#FD9E38"/>
</linearGradient>
<path class="st2" d="M10.7,7.3L7.4,8C7.1,8,6.8,8.2,6.8,8.5s0,0.6,0.2,0.8c0,0,5.3,5.1,5.3,5.1c0.3,0.3,0.8,0.3,1.1,0
	c0.3-0.3,0.3-0.8,0-1.1L9.1,9.2l3.1-0.6c0.3-0.1,0.5-0.2,0.6-0.5c0.1-0.2,0.1-0.5-0.1-0.7L7.2,0.3C6.9,0,6.5-0.1,6.1,0.2
	C5.8,0.4,5.7,0.9,6,1.2L10.7,7.3z"/>
<linearGradient id="SVGID_4_" gradientUnits="userSpaceOnUse" x1="0.125" y1="13.3966" x2="38.1499" y2="13.3966">
	<stop  offset="0" style="stop-color:#E45D5D"/>
	<stop  offset="1" style="stop-color:#FD9E38"/>
</linearGradient>
<path class="st3" d="M4.9,13.5L3,14.3c-0.3,0.1-0.4,0.4-0.4,0.6c0,0.3,0.1,0.5,0.4,0.7l4,2.6C7.3,18.5,7.8,18.4,8,18
	c0.2-0.4,0.1-0.8-0.2-1.1l-2.8-1.8l1.7-0.8C6.8,14.3,7,14.1,7,13.8c0-0.3-0.1-0.5-0.2-0.7L1.7,8.6C1.4,8.3,0.9,8.4,0.6,8.7
	C0.3,9,0.3,9.5,0.6,9.8L4.9,13.5z"/>
<linearGradient id="SVGID_5_" gradientUnits="userSpaceOnUse" x1="0.125" y1="7.2684" x2="38.1499" y2="7.2684">
	<stop  offset="0" style="stop-color:#E45D5D"/>
	<stop  offset="1" style="stop-color:#FD9E38"/>
</linearGradient>
<path class="st4" d="M25.2,14.5c0.2,0,0.4-0.1,0.5-0.2L31,9.3c0.2-0.2,0.3-0.5,0.2-0.8C31.2,8.2,30.9,8,30.6,8l-3.4-0.7L32,1.2
	c0.3-0.3,0.2-0.8-0.1-1.1c-0.3-0.3-0.8-0.2-1.1,0.1l-5.5,7.1c-0.2,0.2-0.2,0.5-0.1,0.7c0.1,0.2,0.3,0.4,0.6,0.5l3.1,0.6l-4.2,4.1
	c-0.3,0.3-0.3,0.8,0,1.1C24.8,14.5,25,14.5,25.2,14.5z"/>
<linearGradient id="SVGID_6_" gradientUnits="userSpaceOnUse" x1="0.125" y1="13.3978" x2="38.1499" y2="13.3978">
	<stop  offset="0" style="stop-color:#E45D5D"/>
	<stop  offset="1" style="stop-color:#FD9E38"/>
</linearGradient>
<path class="st5" d="M31,13.8c0,0.3,0.2,0.5,0.4,0.6l1.7,0.8L30.2,17c-0.4,0.2-0.5,0.7-0.2,1.1c0.1,0.2,0.4,0.4,0.7,0.4
	c0.1,0,0.3,0,0.4-0.1l4-2.6c0.2-0.2,0.4-0.4,0.4-0.7c0-0.3-0.2-0.5-0.4-0.6l-1.9-0.9l4.2-3.7c0.3-0.3,0.3-0.8,0.1-1.1
	c-0.3-0.3-0.8-0.3-1.1-0.1l-5.1,4.5C31,13.3,30.9,13.6,31,13.8z"/>
</svg>
