<?xml version="1.0" encoding="utf-8"?>
<!-- Generator: Adobe Illustrator 22.0.1, SVG Export Plug-In . SVG Version: 6.00 Build 0)  -->
<svg version="1.1"
	 id="Layer_1" xmlns:cc="http://creativecommons.org/ns#" xmlns:dc="http://purl.org/dc/elements/1.1/" xmlns:inkscape="http://www.inkscape.org/namespaces/inkscape" xmlns:rdf="http://www.w3.org/1999/02/22-rdf-syntax-ns#" xmlns:sodipodi="http://sodipodi.sourceforge.net/DTD/sodipodi-0.dtd" xmlns:svg="http://www.w3.org/2000/svg"
	 xmlns="http://www.w3.org/2000/svg" xmlns:xlink="http://www.w3.org/1999/xlink" x="0px" y="0px" width="48px" height="49px"
	 viewBox="0 0 48 49" style="enable-background:new 0 0 48 49;" xml:space="preserve">
<style type="text/css">
	.st0{fill:url(#SVGID_1_);}
</style>
<g transform="translate(0,-1020.3622)">
	<linearGradient id="SVGID_1_" gradientUnits="userSpaceOnUse" x1="0" y1="1044.8622" x2="48" y2="1044.8622">
		<stop  offset="0" style="stop-color:#E45D5D"/>
		<stop  offset="1" style="stop-color:#FD9E38"/>
	</linearGradient>
	<path class="st0" d="M17.8,1020.4c-2.2,0.2-4.2,1.3-5.3,3.3c-0.3,0.5-0.5,1-0.6,1.5c-2.5,0.2-4.8,1.5-6.1,3.6
		c-1.4,2.1-1.7,4.8-0.8,7.2c-4.1,2.4-6.1,7.3-4.4,11.9c0.7,2,2.1,3.7,3.8,4.8c-0.1,0.1-0.1,0.2-0.1,0.3c-0.6,2.7-0.1,5.5,1.4,7.8
		c1.5,2.2,3.8,3.8,6.4,4.4c0.3,0.9,0.8,1.7,1.6,2.4c1.9,1.9,4.8,2.4,7.3,1.4c1.3-0.6,2.4-1.5,3.2-2.7c0.7,1.2,1.8,2.2,3.2,2.7
		c2.5,1,5.4,0.5,7.3-1.4c0.7-0.7,1.2-1.5,1.6-2.4c2.6-0.6,4.9-2.1,6.4-4.3c1.5-2.3,2-5.1,1.4-7.8c0-0.1-0.1-0.2-0.1-0.3
		c1.7-1.1,3.1-2.8,3.8-4.8c1.6-4.5-0.3-9.5-4.4-11.9c0.9-2.4,0.6-5-0.8-7.2c-1.4-2.1-3.6-3.4-6.1-3.6c-0.1-0.5-0.3-1-0.6-1.5
		c-1.5-2.6-4.6-3.8-7.5-3.1c-1.7,0.5-3.1,1.6-4,3c-0.9-1.4-2.3-2.5-4-3C19.3,1020.4,18.6,1020.3,17.8,1020.4L17.8,1020.4z
		 M18,1022.3c0.5,0,1,0,1.6,0.2c2,0.5,3.5,2.3,3.5,4.4c0,0,0,0.1,0,0.1v1c-1.5,0.3-3.1-0.1-4.3-1.1c-0.4-0.4-1-0.3-1.3,0.1
		c-0.4,0.4-0.3,1,0.1,1.3c1.5,1.4,3.6,2,5.6,1.7v17.8c-0.1,0.1-0.1,0.2-0.2,0.3c-0.2,0.8-0.8,1.4-1.6,1.7c-0.8,0.3-1.6,0.1-2.3-0.4
		c-0.4-0.3-1-0.2-1.3,0.2c-0.3,0.4-0.2,0.9,0.2,1.3c0.6,0.4,1.2,0.7,1.9,0.8c0.7,0.1,1.4,0.1,2.1-0.2c0.4-0.1,0.8-0.4,1.2-0.6v2.8
		c0,0.1,0,0.1,0,0.2v3.9c0,0.1,0,0.1,0,0.2v4.6c0,0,0,0.1,0,0.1c-0.1,1.8-1.2,3.5-2.9,4.2c-1.8,0.7-3.8,0.3-5.2-1
		c-1.4-1.3-1.8-3.4-1-5.1c0.2-0.4,0.4-0.7,0.6-1c0,0,0,0,0.1,0c0.8-0.1,1.6,0.2,2.2,0.8c0.5,0.6,0.7,1.5,0.5,2.2
		c-0.1,0.5,0.2,1,0.7,1.2c0.5,0.1,1-0.2,1.2-0.7c0,0,0,0,0,0c0.4-1.4,0-2.9-1-4c-0.4-0.5-1-0.9-1.6-1.1c0.5-0.2,1.1-0.3,1.7-0.3
		c0.5,0,1-0.4,1-0.9c0-0.5-0.4-0.9-0.9-1c0,0,0,0,0,0c-2.7,0-5.1,1.6-6.2,4.1c-0.4,0.9-0.5,1.8-0.5,2.7c-1.8-0.6-3.4-1.7-4.4-3.3
		c-1.2-1.8-1.6-4-1.1-6.2c2,0.8,4.2,1.1,6.5,0.5c0.5-0.1,0.8-0.7,0.7-1.2c-0.1-0.5-0.7-0.8-1.2-0.7c-4.1,1.1-8.3-1.1-9.7-5
		c-1.4-3.9,0.4-8.3,4.2-10c0.5-0.2,0.7-0.8,0.5-1.2c0-0.1-0.1-0.2-0.2-0.3c0,0,0,0,0,0c-0.8-1.9-0.7-4.1,0.5-5.8
		c1-1.5,2.5-2.5,4.3-2.7c0,1.1,0.3,2.3,0.9,3.3c-0.9,0.1-1.9,0.4-2.7,0.8c-0.5,0.3-0.6,0.8-0.3,1.3c0.3,0.4,0.8,0.6,1.3,0.3
		c1.3-0.7,2.9-0.8,4.3-0.3c1.4,0.6,2.4,1.8,2.7,3.2c0.1,0.5,0.7,0.8,1.2,0.7c0.5-0.1,0.8-0.6,0.7-1.1c-0.2-1-0.7-1.9-1.4-2.7
		c-0.7-0.8-1.5-1.4-2.5-1.8c-0.2-0.1-0.5-0.1-0.7-0.2c-0.1-0.1-0.1-0.2-0.2-0.3c-1.5-1.5-1.8-3.8-0.8-5.7
		C15,1023.2,16.4,1022.4,18,1022.3L18,1022.3z M30,1022.3c1.5,0.1,3,1,3.8,2.3c0.6,1.1,0.8,2.3,0.5,3.5c-0.1,0.5,0.2,1,0.7,1.1
		c0.5,0.1,1-0.2,1.2-0.7c0.1-0.5,0.2-1,0.2-1.5c1.7,0.3,3.3,1.2,4.3,2.7c1.1,1.7,1.3,3.9,0.5,5.8c0,0,0,0,0,0c-0.4,0.4-0.3,1,0,1.3
		c0.1,0.1,0.2,0.1,0.3,0.2c3.8,1.7,5.7,6.1,4.2,10c-1.4,3.9-5.6,6.1-9.7,5c-0.5-0.1-1,0.2-1.2,0.7c-0.1,0.5,0.2,1,0.7,1.2
		c2.2,0.6,4.5,0.3,6.5-0.5c0.5,2.1,0.1,4.3-1.1,6.2c-1,1.6-2.6,2.7-4.4,3.3c0-0.9-0.1-1.8-0.5-2.7c-1-2.5-3.5-4.1-6.2-4.1
		c-0.5,0-1,0.4-1,0.9c0,0.5,0.4,0.9,0.9,1c0,0,0,0,0,0c1.9,0,3.7,1.1,4.4,2.9c0.7,1.8,0.3,3.8-1,5.1c-1.4,1.3-3.4,1.7-5.2,1
		c-1.7-0.7-2.9-2.4-2.9-4.2c0,0,0-0.1,0-0.1v-0.3c0,0,0,0,0,0c1.6-0.4,3.2,0,4.4,1.1c0.4,0.4,1,0.3,1.3,0c0.4-0.4,0.3-1,0-1.3l0,0
		c-1.5-1.4-3.7-2-5.7-1.6v-12.6c0.3,0.1,0.6,0.2,0.9,0.3c0.7,0.1,1.4,0.1,2.1-0.2c1.4-0.5,2.5-1.6,2.8-3c0.1-0.5-0.2-1-0.7-1.2
		c-0.5-0.1-1,0.2-1.2,0.7c0,0,0,0,0,0c-0.2,0.8-0.8,1.4-1.6,1.7c-0.8,0.3-1.6,0.1-2.3-0.4c0,0-0.1-0.1-0.1-0.1v-11.5
		c1.3,0.4,2.8,0.1,4-0.8c0,0,0.1-0.1,0.1-0.1c0,0,0.1,0,0.1,0c1.6-1,3.7-0.9,5.3,0.2c0.4,0.3,1,0.2,1.3-0.2c0.3-0.4,0.2-1-0.2-1.3
		c-1.5-1.1-3.3-1.4-5.1-1.1c0.1-0.8,0.1-1.6-0.3-2.4c-0.2-0.5-0.8-0.7-1.2-0.5c-0.5,0.2-0.7,0.7-0.5,1.2c0,0,0,0,0,0
		c0.4,1,0.1,2.2-0.7,2.9c-0.8,0.6-1.9,0.7-2.8,0.2v-5.2c0,0,0-0.1,0-0.1c0.1-2.1,1.5-3.9,3.5-4.4C29,1022.3,29.5,1022.2,30,1022.3
		L30,1022.3z M30,1038.3c-0.5,0-1,0.4-1,0.9c0,0.4,0.3,0.8,0.7,0.9c2.1,0.5,3.9,1.9,5,3.8c0,0,0.1,0.1,0.1,0.1
		c-0.1,0.7-0.1,1.5,0.1,2.3c-0.5,0.2-0.9,0.4-1.3,0.7c-0.5,0.4-1,1-1.3,1.7c-0.2,0.5,0,1,0.5,1.2c0.5,0.2,1,0,1.2-0.5
		c0.3-0.8,1-1.3,1.8-1.5c0.8-0.2,1.6,0.1,2.2,0.7c0.4,0.4,1,0.4,1.4,0c0.4-0.4,0.4-1,0-1.3c0,0,0,0,0,0c-0.7-0.7-1.7-1.1-2.7-1.2
		c-0.5-2,0.4-4.2,2.2-5.2c0.5-0.2,0.6-0.8,0.4-1.3c-0.2-0.4-0.6-0.6-1.1-0.5c-0.1,0-0.2,0.1-0.3,0.1c-1.1,0.6-1.9,1.5-2.5,2.6
		c-1.3-1.7-3.2-3-5.4-3.5C30.2,1038.3,30.1,1038.3,30,1038.3L30,1038.3z M8,1038.7c-0.5,0-1,0.4-1,0.9c0,0.2,0.1,0.5,0.2,0.7
		c0.5,0.6,0.7,1.5,0.4,2.3c-0.3,0.8-0.9,1.4-1.7,1.6c-0.5,0.1-0.8,0.6-0.7,1.2c0.1,0.5,0.6,0.8,1.2,0.7c0,0,0,0,0,0
		c1-0.3,1.9-0.9,2.4-1.7c2.1,0.6,3.5,2.4,3.5,4.5c0,0.5,0.4,0.9,0.9,1c0.4,0,0.8-0.3,0.9-0.7c0-0.1,0-0.2,0-0.3c0-0.4,0-0.8-0.1-1.1
		c0.1-0.1,0.1-0.2,0.1-0.3c0.3-2.4,2.4-4.3,4.9-4.2c0.5,0,1-0.4,1-0.9c0-0.5-0.4-1-0.9-1c-2.7-0.1-5.1,1.5-6.2,3.7
		c-0.8-1.1-2-2-3.4-2.5c0.1-0.5,0.1-1,0-1.4c-0.1-0.7-0.4-1.4-0.9-1.9C8.6,1038.9,8.3,1038.7,8,1038.7L8,1038.7z"/>
</g>
</svg>
