<?xml version="1.0" encoding="utf-8"?>
<!-- Generator: Adobe Illustrator 22.0.1, SVG Export Plug-In . SVG Version: 6.00 Build 0)  -->
<svg version="1.1" id="Layer_1" xmlns="http://www.w3.org/2000/svg" xmlns:xlink="http://www.w3.org/1999/xlink" x="0px" y="0px"
	 width="14px" height="8px" viewBox="0 0 14 8" style="enable-background:new 0 0 14 8;" xml:space="preserve">
<style type="text/css">
	.st0{fill:#292C35;}
</style>
<path class="st0" d="M13.7,0.3c-0.4-0.4-0.9-0.4-1.3,0L7,5.8L1.5,0.3c-0.4-0.4-0.9-0.4-1.3,0C0.1,0.4,0,0.7,0,0.9s0.1,0.5,0.3,0.7
	l6.1,6.2C6.5,7.9,6.8,8,7,8c0.2,0,0.5-0.1,0.6-0.3l6.1-6.2C13.9,1.4,14,1.2,14,0.9C14,0.7,13.9,0.4,13.7,0.3z"/>
</svg>
