<?xml version="1.0" encoding="utf-8"?>
<!-- Generator: Adobe Illustrator 22.0.1, SVG Export Plug-In . SVG Version: 6.00 Build 0)  -->
<svg version="1.1" id="Layer_1" xmlns="http://www.w3.org/2000/svg" xmlns:xlink="http://www.w3.org/1999/xlink" x="0px" y="0px"
	 width="47px" height="49px" viewBox="0 0 47 49" style="enable-background:new 0 0 47 49;" xml:space="preserve">
<style type="text/css">
	.st0{fill:url(#SVGID_1_);}
	.st1{fill:url(#SVGID_2_);}
	.st2{fill:url(#SVGID_3_);}
	.st3{fill:url(#SVGID_4_);}
</style>
<g>
	<g>
		<linearGradient id="SVGID_1_" gradientUnits="userSpaceOnUse" x1="-2.4566" y1="28.4886" x2="47.2223" y2="28.4886">
			<stop  offset="0" style="stop-color:#E45D5D"/>
			<stop  offset="1" style="stop-color:#FD9E38"/>
		</linearGradient>
		<path class="st0" d="M31.7,8c-0.4-0.1-0.8,0-1.1,0.3c-0.3,0.3-0.3,0.7-0.1,1.1c1.4,2.7,2.2,5.6,2.2,8.7c0,10.4-8.8,18.9-19.5,18.9
			c-1.9,0-3.8-0.3-5.6-0.8c-0.4-0.1-0.8,0-1.1,0.3c-0.3,0.3-0.3,0.7-0.1,1.1C10,44.6,17.3,49,25.4,49C37.3,49,47,39.6,47,28.1
			C47,18.9,40.7,10.7,31.7,8z M25.4,47c-6.5,0-12.5-3.1-16.1-8.3c1.3,0.2,2.5,0.3,3.8,0.3c11.9,0,21.6-9.4,21.6-20.9
			c0-2.5-0.5-5-1.4-7.4c7,3,11.7,9.8,11.7,17.3C44.9,38.5,36.2,47,25.4,47z"/>
		<linearGradient id="SVGID_2_" gradientUnits="userSpaceOnUse" x1="-2.4566" y1="24.0743" x2="47.2223" y2="24.0743">
			<stop  offset="0" style="stop-color:#E45D5D"/>
			<stop  offset="1" style="stop-color:#FD9E38"/>
		</linearGradient>
		<path class="st1" d="M9.2,19.1h8.1L8.5,29.4c-0.3,0.3-0.3,0.7-0.1,1.1c0.2,0.4,0.5,0.6,0.9,0.6h10.3c0.6,0,1-0.4,1-1
			c0-0.6-0.5-1-1-1h-8.1l8.9-10.3c0.3-0.3,0.3-0.7,0.1-1.1c-0.2-0.3-0.5-0.6-0.9-0.6H9.2c-0.6,0-1,0.4-1,1S8.7,19.1,9.2,19.1z"/>
		<linearGradient id="SVGID_3_" gradientUnits="userSpaceOnUse" x1="-2.4566" y1="8.9734" x2="47.2223" y2="8.9734">
			<stop  offset="0" style="stop-color:#E45D5D"/>
			<stop  offset="1" style="stop-color:#FD9E38"/>
		</linearGradient>
		<path class="st2" d="M8.2,13c0-0.6-0.5-1-1-1H3.1L8,5.6c0.2-0.3,0.3-0.7,0.1-1C7.9,4.2,7.6,4,7.2,4H1C0.5,4,0,4.4,0,5s0.5,1,1,1
			h4.1l-4.9,6.4c-0.2,0.3-0.3,0.7-0.1,1S0.6,14,1,14h6.2C7.8,14,8.2,13.5,8.2,13z"/>
		<linearGradient id="SVGID_4_" gradientUnits="userSpaceOnUse" x1="-2.4566" y1="3.9877" x2="47.2223" y2="3.9877">
			<stop  offset="0" style="stop-color:#E45D5D"/>
			<stop  offset="1" style="stop-color:#FD9E38"/>
		</linearGradient>
		<path class="st3" d="M13.3,2h2.2l-3,4.4c-0.2,0.3-0.2,0.7-0.1,1C12.6,7.8,13,8,13.3,8h4.1c0.6,0,1-0.4,1-1s-0.5-1-1-1h-2.2l3-4.4
			c0.2-0.3,0.2-0.7,0.1-1C18.2,0.2,17.8,0,17.5,0h-4.1c-0.6,0-1,0.4-1,1S12.8,2,13.3,2z"/>
	</g>
</g>
</svg>
