<?xml version="1.0" encoding="utf-8"?>
<!-- Generator: Adobe Illustrator 22.0.1, SVG Export Plug-In . SVG Version: 6.00 Build 0)  -->
<svg version="1.1"
	 id="Layer_1" xmlns:cc="http://creativecommons.org/ns#" xmlns:dc="http://purl.org/dc/elements/1.1/" xmlns:rdf="http://www.w3.org/1999/02/22-rdf-syntax-ns#"
	 xmlns="http://www.w3.org/2000/svg" xmlns:xlink="http://www.w3.org/1999/xlink" x="0px" y="0px" width="21px" height="19px"
	 viewBox="0 0 21 19" style="enable-background:new 0 0 21 19;" xml:space="preserve">
<style type="text/css">
	.st0{fill:url(#SVGID_1_);}
</style>
<linearGradient id="SVGID_1_" gradientUnits="userSpaceOnUse" x1="-1.818989e-12" y1="9.5" x2="21" y2="9.5">
	<stop  offset="0" style="stop-color:#E45D5D"/>
	<stop  offset="1" style="stop-color:#FD9E38"/>
</linearGradient>
<path class="st0" d="M0,14.8c-0.3-4,1.1-7.1,2.8-8.9C4.5,4.1,6.7,3.2,10,2.6C13.3,2,18,3.1,21,0C21.5,19.2,7.6,22,0.8,16.5
	c2.4-2.9,5-4.9,8.6-6.2c2.6-1,5-1.4,7.4-4.2c-3.5,2.4-6.4,2.6-8.5,3.3C5.2,10.3,2.7,11.7,0,14.8L0,14.8z"/>
</svg>
